<svg id="Layer_1" data-name="Layer 1" xmlns="http://www.w3.org/2000/svg" xmlns:xlink="http://www.w3.org/1999/xlink" viewBox="0 0 500 500"><defs><style>.cls-1{fill:none;}.cls-2{clip-path:url(#clip-path);}.cls-3{fill:#86c7ed;}</style><clipPath id="clip-path"><rect class="cls-1" x="67.48" y="-22.58" width="365.03" height="311"/></clipPath></defs><title>Artboard 1</title><g class="cls-2"><path class="cls-3" d="M431.26,278.39A180.58,180.58,0,1,1,250.68,97.8,180.58,180.58,0,0,1,431.26,278.39ZM250.68,168A110.36,110.36,0,1,0,361,278.39,110.36,110.36,0,0,0,250.68,168Z"/></g><path class="cls-3" d="M250.24,343.21a60.64,60.64,0,1,1,60.63-60.64A60.64,60.64,0,0,1,250.24,343.21Zm37-60.64a37,37,0,1,0-37,37A37,37,0,0,0,287.21,282.57Z"/><circle class="cls-3" cx="259.32" cy="291.9" r="18.66"/></svg>